<svg xmlns="http://www.w3.org/2000/svg" viewBox="0 0 64 64"><circle cx="32" cy="32" r="32" fill="#5fddb6"/><path d="M49.9,43.9a2.5,2.5,0,0,1-2.5,2.4H16.8a2.5,2.5,0,0,1-2.5-2.4V36.8c0-.4,0-0.6,0-1.2s0-.7,0-1.2l5.1-14.2c0.4-1.3,1.1-2.4,2.5-2.4H42.2c1.4,0,2.1,1,2.5,2.4l5.1,14.2c0,0.4,0,.7,0,1.2s0,0.7,0,1.1v7.1M42.2,25c-0.6-1.3-1.1-2.4-2.5-2.4H24.5c-1.4,0-2.1,1-2.5,2.4l-2.5,9.5H27v4.7a2.5,2.5,0,0,0,2.5,2.4h5.1a2.5,2.5,0,0,0,2.5-2.4V34.5h7.6L42.2,25M24.4,29.7H39.7V32H24.4V29.7m0-4.7H39.7v2.3H24.4V25Z" transform="translate(-0.1 -0.1)" fill="#fff"/></svg>
