<svg xmlns="http://www.w3.org/2000/svg" viewBox="0 0 32 32"><title>icon</title><rect width="32" height="32" fill="#b521b5"/><rect x="15.3" y="17.7" width="1.5" height="0.75" fill="#ecb7f9"/><path d="M22.3,8.6H16.2V9.9H15.1V8.6H9.7a0.6,0.6,0,0,0-.5.6V22.8a0.6,0.6,0,0,0,.5.6H22.3a0.6,0.6,0,0,0,.5-0.6V9.2A0.6,0.6,0,0,0,22.3,8.6Zm-7.2,2.6h1.1v1.3H15.1V11.2Zm0,2.6h1.1V15H15.1V13.7Zm2.2,5a0.3,0.3,0,0,1-.2.3H15.3a0.3,0.3,0,0,1-.3-0.3V16.3h1.2V15h1.1v3.7Zm0-5H16.2V12.5h1.1v1.3Zm0-2.6H16.2V9.9h1.1v1.3Z" fill="#ecb7f9"/></svg>