<svg xmlns="http://www.w3.org/2000/svg" viewBox="0 0 32 32"><title>icon</title><rect width="32" height="32" fill="#44b722"/><path d="M15,22.3H10.4a1.1,1.1,0,0,1-1-1.1V10.9a1.1,1.1,0,0,1,1-1.1h8.1a1.1,1.1,0,0,1,1,1.1v6.3a0.5,0.5,0,1,0,1,0V10.9a2.2,2.2,0,0,0-2-2.3H10.4a2.2,2.2,0,0,0-2,2.3V21.1a2.2,2.2,0,0,0,2,2.3H15A0.6,0.6,0,0,0,15,22.3ZM17,12H11.9a0.6,0.6,0,0,0,0,1.1H17A0.6,0.6,0,0,0,17,12Zm0.5,4a0.5,0.5,0,0,0-.5-0.6H11.9a0.6,0.6,0,0,0,0,1.1H17A0.5,0.5,0,0,0,17.5,16Zm-5.6,2.9a0.6,0.6,0,0,0,0,1.1h2a0.6,0.6,0,0,0,0-1.1h-2Zm11.5-1a0.5,0.5,0,0,0-.7,0L19,22.1l-1.7-1.9a0.4,0.4,0,0,0-.7,0,0.6,0.6,0,0,0,0,.8l1.9,2.2h0.1a0.5,0.5,0,0,0,.7,0l4.1-4.6A0.6,0.6,0,0,0,23.5,17.8Z" fill="#eef9e8"/></svg>