<svg xmlns="http://www.w3.org/2000/svg" viewBox="0 0 32 32"><title>icon</title><rect width="32" height="32" fill="#ef4052"/><path d="M12.7,19A2.9,2.9,0,1,0,9.7,16,2.9,2.9,0,0,0,12.7,19ZM9.3,13.8a0.7,0.7,0,0,1-.7-0.6V9.8a0.4,0.4,0,0,1,.1-0.3H23.2a0.4,0.4,0,0,1,.1.3v11a0.4,0.4,0,0,1-.1.3H18.2a0.8,0.8,0,0,1-.7-0.6,0.7,0.7,0,0,1,.7-0.6h3.9s0-9,0-9.3H10c0,0.3,0,2.5,0,2.5a0.7,0.7,0,0,1-.7.6h0ZM18,16.4a0,0,0,0,1,0,0l2.4-2.4a0.4,0.4,0,0,1,.5.5l-2.4,2.4h0Zm-2.2,4.1a5.3,5.3,0,0,0-.3,2,0.3,0.3,0,0,1-.4.2H8.6a7.8,7.8,0,0,1,1.1-3.4,0.6,0.6,0,0,1,.4-0.3h0.3a3.7,3.7,0,0,0,4.4,0l2.4-1.8h0.3a0.4,0.4,0,0,1,.4.4v0.2l-1.9,2.8h0Z" fill="#fdcfdb"/></svg>