<svg xmlns="http://www.w3.org/2000/svg" viewBox="0 0 32 32"><title>icon</title><rect width="32" height="32" fill="#ef4052"/><path d="M9.1,23.9H8.9a0.9,0.9,0,0,1-.7-0.7c-0.2-.6.2-1.4,1.1-2.3a8.7,8.7,0,0,1,3.1-1.7,22.4,22.4,0,0,0,2-6l-0.4-1c-0.7-2-.8-3.3-0.1-3.9a1,1,0,0,1,1.1-.2,1.9,1.9,0,0,1,1,1.8,19.9,19.9,0,0,1-.4,3.1A15.9,15.9,0,0,0,19.4,18a9.7,9.7,0,0,1,3.5.3,1.3,1.3,0,0,1,1.1,1.2c0,0.6-.6,1.2-1.9,1.2a5.7,5.7,0,0,1-3.1-1.5,24.6,24.6,0,0,0-5.8,1l-0.9,1.3c-1.2,1.5-2.3,2.3-3.2,2.3h0Zm2-2.8-0.9.7-0.6.7a6.2,6.2,0,0,0,1.6-1.4h0Zm10-1.9a2.1,2.1,0,0,0,1.3.2l-1.3-.2h0Zm-5.9-4.3a23.5,23.5,0,0,1-1.3,3.8l3.8-.7a17.7,17.7,0,0,1-2.5-3.2h0ZM14.5,9.4a3.3,3.3,0,0,0,.1,1.3c0-.3,0-0.5,0-0.7a1,1,0,0,0-.2-0.6h0Zm0,0" fill="#fdcfdb"/></svg>