<svg xmlns="http://www.w3.org/2000/svg" viewBox="0 0 32 32"><title>icon</title><rect width="32" height="32" fill="#c6a82c"/><path d="M17.7,8.3h-7A1.7,1.7,0,0,0,9.3,9.7V22.3a1.6,1.6,0,0,0,1.4,1.4H21.2a1.7,1.7,0,0,0,1.5-1.4V12.5Z" fill="#f9edc7"/><path d="M12.3,18.7a0.4,0.4,0,0,0,.4.3h0.1V18.9a3.9,3.9,0,0,1,.4-1.4,5.4,5.4,0,0,0,.6-1.5,0.5,0.5,0,0,0-.3-0.3l-0.8.5a0.3,0.3,0,0,0-.2.3s0,0.1,0,.1h0.1l0.5-.2a10.2,10.2,0,0,0-.7,1.4A2.7,2.7,0,0,0,12.3,18.7Z" fill="#c6a82c"/><path d="M19.1,15.1a3.1,3.1,0,0,0-1.4,1,2.5,2.5,0,0,0-.6,1.6,1,1,0,0,0,.3.6,0.7,0.7,0,0,0,.6.2,2.6,2.6,0,0,0,1.8-2.6,0.5,0.5,0,0,0-.3-0.5h0.1A0.5,0.5,0,0,0,19.1,15.1ZM19.2,16a3,3,0,0,1-.5,1.2l-0.4.5-0.5.3c-0.1,0-.2-0.3-0.2-0.3a2.3,2.3,0,0,1,1.1-1.8h0l0.3-.2C19.2,15.8,19.3,15.9,19.2,16Z" fill="#c6a82c"/><path d="M12.5,20.3h0l0.5-.2a30.5,30.5,0,0,1,6.2-1.3H18.6a18.3,18.3,0,0,0-6.2,1.3h0Z" fill="#c6a82c"/><path d="M11.6,14h2.7V13.5H11.3v0.2A0.3,0.3,0,0,0,11.6,14Z" fill="#c6a82c"/><path d="M14.6,18.6a0.7,0.7,0,0,0,.6.2,2.4,2.4,0,0,0,1.7-2.5,0.8,0.8,0,0,0-.3-0.6h0.1a0.5,0.5,0,0,0-.5-0.3,3.1,3.1,0,0,0-1.4,1,2.5,2.5,0,0,0-.6,1.6A0.7,0.7,0,0,0,14.6,18.6ZM16,16.2h0l0.3-.2c0.1,0,.3.1,0.2,0.3a3,3,0,0,1-.5,1.2l-0.4.5-0.5.3c-0.1,0-.2-0.3-0.2-0.3A2.3,2.3,0,0,1,16,16.2Z" fill="#c6a82c"/><path d="M19.2,19.3A18.3,18.3,0,0,0,13,20.6h0l0.5-.2a30.5,30.5,0,0,1,6.2-1.3H19.2Z" fill="#c6a82c"/><path d="M16.8,12.6V12.2H11.3v0.2a0.3,0.3,0,0,0,.3.3h5.3Z" fill="#c6a82c"/></svg>