<?xml version="1.0" standalone="no"?><!DOCTYPE svg PUBLIC "-//W3C//DTD SVG 1.1//EN" "http://www.w3.org/Graphics/SVG/1.1/DTD/svg11.dtd"><svg t="1517990919955" class="icon" style="" viewBox="0 0 1024 1024" version="1.1" xmlns="http://www.w3.org/2000/svg" p-id="2494" xmlns:xlink="http://www.w3.org/1999/xlink" width="200" height="200"><defs><style type="text/css"></style></defs><path d="M892.162257 24.681952 131.837743 24.681952c-70.433862 0-128.22575 57.189888-128.22575 128.22575l0 682.666667c0 70.433862 57.189888 128.22575 128.22575 128.22575l760.324515 0c70.433862 0 128.22575-57.189888 128.22575-128.22575L1020.388007 152.305703C1020.388007 81.87184 963.198119 24.681952 892.162257 24.681952zM193.843621 232.371546l60.801881 0c17.457966 0 31.905938 14.447972 31.905938 31.905938 0 17.457966-14.447972 31.905938-31.905938 31.905938L193.843621 296.183422c-17.457966 0-31.905938-14.447972-31.905938-31.905938C162.539683 246.217519 176.385655 232.371546 193.843621 232.371546zM480.395062 688.084656c0 14.447972-6.019988 27.691946-15.651969 37.323927-9.631981 9.631981-22.875955 15.651969-37.323927 15.651969L214.91358 741.060553c-14.447972 0-27.691946-6.019988-37.323927-15.651969-9.631981-9.631981-15.651969-22.875955-15.651969-37.323927L161.937684 474.977072c0-14.447972 6.019988-27.089947 15.049971-36.721928l0 0c9.631981-9.631981 22.273956-15.049971 36.721928-15.049971L427.419165 423.205173c14.447972 0 27.691946 6.019988 37.323927 15.651969 9.631981 9.631981 15.651969 22.875955 15.651969 37.323927L480.395062 688.084656zM829.55438 676.04468l-190.833627 0c-17.457966 0-31.905938-14.447972-31.905938-31.905938 0-17.457966 14.447972-31.905938 31.905938-31.905938l190.833627 0c17.457966 0 31.905938 14.447972 31.905938 31.905938C861.460317 662.198707 847.614345 676.04468 829.55438 676.04468zM829.55438 485.211052l-190.833627 0c-17.457966 0-31.905938-14.447972-31.905938-31.905938 0-17.457966 14.447972-31.905938 31.905938-31.905938l190.833627 0c17.457966 0 31.905938 14.447972 31.905938 31.905938C861.460317 470.763081 847.614345 485.211052 829.55438 485.211052zM829.55438 295.581423 369.025279 295.581423c-17.457966 0-31.905938-14.447972-31.905938-31.905938 0-17.457966 14.447972-31.905938 31.905938-31.905938l461.131099 0c17.457966 0 31.905938 14.447972 31.905938 31.905938C861.460317 281.73545 847.614345 295.581423 829.55438 295.581423z" p-id="2495" fill="#ffffff"></path></svg>